<svg width="27" height="27" viewBox="0 0 27 27" fill="none" xmlns="http://www.w3.org/2000/svg">
<path d="M19.1209 8.20006C18.9079 8.04637 18.6666 7.93616 18.411 7.87572C18.1554 7.81528 17.8903 7.80579 17.631 7.8478C17.3717 7.8898 17.1232 7.98248 16.8997 8.12054C16.6762 8.25859 16.4821 8.43932 16.3285 8.6524L11.8568 14.8524L9.99595 12.4926C9.83516 12.2813 9.63388 12.104 9.40386 11.9713C9.17385 11.8386 8.9197 11.753 8.65624 11.7195C8.39279 11.6861 8.12531 11.7054 7.86942 11.7764C7.61352 11.8474 7.37433 11.9687 7.1658 12.1331C6.95727 12.2976 6.78358 12.5019 6.65486 12.7342C6.52614 12.9665 6.44497 13.2221 6.41609 13.4861C6.38721 13.7501 6.4112 14.0172 6.48665 14.2718C6.5621 14.5264 6.6875 14.7635 6.85555 14.9691L10.3584 19.411C10.6893 19.8317 11.1713 20.0982 11.6937 20.1599L11.9711 20.1726C12.2806 20.166 12.5843 20.0876 12.8583 19.9437C13.1324 19.7998 13.3693 19.5942 13.5504 19.3432L19.5723 10.9923C19.726 10.7794 19.8362 10.5382 19.8968 10.2826C19.9573 10.027 19.9668 9.762 19.9249 9.50271C19.883 9.24342 19.7904 8.99493 19.6525 8.77142C19.5145 8.54791 19.3339 8.35376 19.1209 8.20006Z" fill="#BFCFFF"/>
</svg>
